<svg width="50" height="50" viewBox="0 0 50 50" fill="none" xmlns="http://www.w3.org/2000/svg">
<rect width="50" height="50" rx="25" fill="#B7BDAB"/>
<path d="M18.4563 26.1375L26.3219 34.2161C26.643 34.5459 26.7971 34.9306 26.7842 35.3702C26.7714 35.8099 26.6039 36.1946 26.2818 36.5243C25.9607 36.8266 25.5862 36.9848 25.1581 36.9991C24.7301 37.0134 24.3555 36.8551 24.0345 36.5243L13.4399 25.6429C13.2794 25.4781 13.1654 25.2994 13.098 25.1071C13.0306 24.9148 12.998 24.7087 13.0001 24.4888C13.0022 24.269 13.0359 24.0629 13.1012 23.8706C13.1665 23.6782 13.2799 23.4996 13.4415 23.3348L24.0361 12.4534C24.3304 12.1511 24.6985 12 25.1405 12C25.5824 12 25.9634 12.1511 26.2834 12.4534C26.6044 12.7831 26.765 13.175 26.765 13.6289C26.765 14.0828 26.6044 14.4741 26.2834 14.8028L18.4563 22.8401H36.3948C36.8496 22.8401 37.2311 22.9984 37.5393 23.315C37.8475 23.6315 38.0011 24.0228 38 24.4888C37.9989 24.9549 37.8448 25.3467 37.5377 25.6644C37.2306 25.982 36.8496 26.1397 36.3948 26.1375H18.4563Z" fill="white" fill-opacity="0.7"/>
</svg>
