<svg width="50" height="50" viewBox="0 0 50 50" fill="none" xmlns="http://www.w3.org/2000/svg">
<rect width="50" height="50" rx="25" transform="matrix(-1 0 0 1 50 0)" fill="#CBD1BF" fill-opacity="0.6"/>
<path d="M31.5437 26.1375L23.6781 34.2161C23.357 34.5459 23.2029 34.9306 23.2158 35.3702C23.2286 35.8099 23.3961 36.1946 23.7182 36.5243C24.0393 36.8266 24.4138 36.9848 24.8419 36.9991C25.2699 37.0134 25.6445 36.8551 25.9655 36.5243L36.5601 25.6429C36.7206 25.4781 36.8346 25.2994 36.902 25.1071C36.9694 24.9148 37.002 24.7087 36.9999 24.4888C36.9978 24.269 36.9641 24.0629 36.8988 23.8706C36.8335 23.6782 36.7201 23.4996 36.5585 23.3348L25.9639 12.4534C25.6696 12.1511 25.3015 12 24.8595 12C24.4176 12 24.0366 12.1511 23.7166 12.4534C23.3956 12.7831 23.235 13.175 23.235 13.6289C23.235 14.0828 23.3956 14.4741 23.7166 14.8028L31.5437 22.8401H13.6052C13.1504 22.8401 12.7689 22.9984 12.4607 23.315C12.1525 23.6315 11.9989 24.0228 12 24.4888C12.0011 24.9549 12.1552 25.3467 12.4623 25.6644C12.7694 25.982 13.1504 26.1397 13.6052 26.1375H31.5437Z" fill="white" fill-opacity="0.7"/>
</svg>
